<svg width="96" height="96" viewBox="0 0 480 480" fill="none" xmlns="http://www.w3.org/2000/svg">
<path d="M293.8 144.4V400.6C293.8 407.4 295 412 297.4 414.4C299.8 416.8 304.6 418 311.8 418H328.6V460.6H295C275.8 460.6 261.6 456.2 252.4 447.4C243.6 438.2 239.2 424.8 239.2 407.2V137.2C239.2 120 243.6 107 252.4 98.2C261.6 89 275.8 84.4 295 84.4H332.2V127H311.8C304.6 127 299.8 128.2 297.4 130.6C295 132.6 293.8 137.2 293.8 144.4ZM359.8 202V144.4C359.8 137.2 358.6 132.6 356.2 130.6C354.2 128.2 349.6 127 342.4 127H322.6V84.4H358.6C378.2 84.4 392.4 89 401.2 98.2C410.4 107 415 120 415 137.2V202H359.8ZM359.8 400.6V343.6H415V407.2C415 424.8 410.4 438.2 401.2 447.4C392.4 456.2 378.2 460.6 358.6 460.6H322.6V418H342.4C349.6 418 354.2 416.8 356.2 414.4C358.6 412 359.8 407.4 359.8 400.6Z" fill="#F56C6B"/>
<path d="M200.8 186.2V230H88.6V186.2H200.8ZM50.2 19.4H104.8V395H50.2V19.4ZM184 19.4H238.6V395H184V19.4Z" fill="#75A3A8"/>
</svg>
